<!DOCTYPE svg PUBLIC "-//W3C//DTD SVG 20010904//EN" "http://www.w3.org/TR/2001/REC-SVG-20010904/DTD/svg10.dtd">
<svg version="1.0" xmlns="http://www.w3.org/2000/svg" width="94px" height="114px" viewBox="0 0 940 1140" preserveAspectRatio="xMidYMid meet">
<g id="layer101" fill="#565455" stroke="none">
 <path d="M240 860 l0 -220 -95 0 -95 0 0 -70 0 -70 95 0 95 0 0 -226 0 -227 103 6 c167 10 295 62 399 164 87 85 148 235 148 366 l0 57 -250 0 -250 0 0 220 0 220 -75 0 -75 0 0 -220z m490 -378 c0 -38 -54 -123 -110 -176 -63 -58 -144 -96 -205 -96 l-35 0 0 145 0 145 175 0 c162 0 175 -1 175 -18z"/>
 <path d="M448 1005 c3 -72 5 -75 30 -81 88 -22 191 -105 226 -183 l19 -41 74 0 c52 0 73 4 73 13 0 31 -63 139 -113 192 -65 71 -138 117 -237 151 -40 13 -73 24 -73 24 -1 0 -1 -34 1 -75z"/>
 </g>
<g id="layer102" fill="#006fb7" stroke="none">
 <path d="M240 860 l0 -220 -95 0 -95 0 0 -70 0 -70 95 0 95 0 0 -226 0 -227 103 6 c167 10 295 62 399 164 87 85 148 235 148 366 l0 57 -250 0 -250 0 0 220 0 220 -75 0 -75 0 0 -220z m490 -378 c0 -38 -54 -123 -110 -176 -63 -58 -144 -96 -205 -96 l-35 0 0 145 0 145 175 0 c162 0 175 -1 175 -18z"/>
 </g>

</svg>